<svg id="visual" viewBox="0 0 900 600" width="900" height="600" xmlns="http://www.w3.org/2000/svg" xmlns:xlink="http://www.w3.org/1999/xlink" version="1.1"><rect x="0" y="0" width="900" height="600" fill="#04192a"></rect><defs><linearGradient id="grad1_0" x1="33.3%" y1="0%" x2="100%" y2="100%"><stop offset="20%" stop-color="#489488" stop-opacity="1"></stop><stop offset="80%" stop-color="#489488" stop-opacity="1"></stop></linearGradient></defs><defs><linearGradient id="grad1_1" x1="33.3%" y1="0%" x2="100%" y2="100%"><stop offset="20%" stop-color="#489488" stop-opacity="1"></stop><stop offset="80%" stop-color="#04192a" stop-opacity="1"></stop></linearGradient></defs><defs><linearGradient id="grad2_0" x1="0%" y1="0%" x2="66.7%" y2="100%"><stop offset="20%" stop-color="#489488" stop-opacity="1"></stop><stop offset="80%" stop-color="#489488" stop-opacity="1"></stop></linearGradient></defs><defs><linearGradient id="grad2_1" x1="0%" y1="0%" x2="66.7%" y2="100%"><stop offset="20%" stop-color="#04192a" stop-opacity="1"></stop><stop offset="80%" stop-color="#489488" stop-opacity="1"></stop></linearGradient></defs><g transform="translate(900, 0)"><path d="M0 351.5C-38.2 349.9 -76.5 348.3 -108.6 334.3C-140.8 320.4 -166.9 294.1 -196.3 270.2C-225.7 246.3 -258.3 224.8 -266.2 193.4C-274 162 -257.1 120.7 -267.2 86.8C-277.4 53 -314.4 26.5 -351.5 0L0 0Z" fill="#0f5361"></path><path d="M0 175.8C-19.1 175 -38.2 174.1 -54.3 167.2C-70.4 160.2 -83.5 147.1 -98.2 135.1C-112.8 123.2 -129.2 112.4 -133.1 96.7C-137 81 -128.6 60.4 -133.6 43.4C-138.7 26.5 -157.2 13.2 -175.8 0L0 0Z" fill="#489488"></path></g><g transform="translate(0, 600)"><path d="M0 -351.5C37.5 -349.4 74.9 -347.3 108.6 -334.3C142.3 -321.4 172.3 -297.7 196.3 -270.2C220.4 -242.8 238.6 -211.6 249.2 -181C259.8 -150.5 262.9 -120.6 278.7 -90.5C294.5 -60.5 323 -30.2 351.5 0L0 0Z" fill="#0f5361"></path><path d="M0 -175.8C18.7 -174.7 37.5 -173.6 54.3 -167.2C71.2 -160.7 86.1 -148.8 98.2 -135.1C110.2 -121.4 119.3 -105.8 124.6 -90.5C129.9 -75.3 131.4 -60.3 139.3 -45.3C147.2 -30.2 161.5 -15.1 175.8 0L0 0Z" fill="#489488"></path></g></svg>